<?xml version="1.0" standalone="no"?><svg xmlns="http://www.w3.org/2000/svg" viewBox="0 0 1440 320"><path fill="#28af37" fill-opacity="0.6" d="M0,64L26.7,85.3C53.3,107,107,149,160,170.7C213.3,192,267,192,320,181.3C373.3,171,427,149,480,170.7C533.3,192,587,256,640,266.7C693.3,277,747,235,800,202.7C853.3,171,907,149,960,133.3C1013.3,117,1067,107,1120,138.7C1173.3,171,1227,245,1280,229.3C1333.3,213,1387,107,1413,53.3L1440,0L1440,320L1413.3,320C1386.7,320,1333,320,1280,320C1226.7,320,1173,320,1120,320C1066.7,320,1013,320,960,320C906.7,320,853,320,800,320C746.7,320,693,320,640,320C586.7,320,533,320,480,320C426.7,320,373,320,320,320C266.7,320,213,320,160,320C106.7,320,53,320,27,320L0,320Z"></path></svg>